<svg width="20" height="20" viewBox="0 0 20 20" fill="none" xmlns="http://www.w3.org/2000/svg">
<rect width="20" height="20" rx="2" fill="#A01F1F"/>
<path d="M10 4.375C9.95076 4.37497 9.90198 4.38465 9.85646 4.40348C9.81095 4.42231 9.7696 4.44994 9.73477 4.48477C9.69994 4.5196 9.67231 4.56095 9.65348 4.60646C9.63465 4.65198 9.62497 4.70076 9.625 4.75001V7.75C9.625 7.95728 9.79273 8.12501 10 8.12501C10.2073 8.12501 10.375 7.95728 10.375 7.75V4.75001C10.3751 4.70076 10.3654 4.65198 10.3465 4.60646C10.3277 4.56095 10.3001 4.5196 10.2653 4.48477C10.2304 4.44994 10.1891 4.42231 10.1436 4.40348C10.098 4.38465 10.0493 4.37497 10 4.375Z" fill="white"/>
<path d="M10 9.62502C10.2071 9.62502 10.375 9.45713 10.375 9.25001C10.375 9.0429 10.2071 8.875 10 8.875C9.7929 8.875 9.625 9.0429 9.625 9.25001C9.625 9.45713 9.7929 9.62502 10 9.62502Z" fill="white"/>
<path d="M10 1C6.69167 1 4 3.69167 4 7.00001C4 7.99318 4.24831 8.9779 4.72035 9.85132L9.6719 18.8066C9.73782 18.926 9.86343 19 10 19C10.1366 19 10.2622 18.926 10.3281 18.8066L15.2815 9.84837C15.7517 8.9779 16 7.99314 16 6.99998C16 3.69167 13.3084 1 10 1ZM10 11.125C7.72547 11.125 5.87502 9.27455 5.87502 7.00001C5.87502 4.72547 7.72547 2.87499 10 2.87499C12.2746 2.87499 14.125 4.72544 14.125 6.99998C14.125 9.27452 12.2746 11.125 10 11.125Z" fill="white"/>
</svg>
