<svg width="32" height="32" viewBox="0 0 32 32" fill="none" xmlns="http://www.w3.org/2000/svg">
<g clip-path="url(#clip0_2121_4254)">
<path fill-rule="evenodd" clip-rule="evenodd" d="M21.9947 3.99731C23.2439 3.99718 24.4535 4.43557 25.4126 5.23603C26.3717 6.03648 27.0194 7.14821 27.2427 8.37731L28.4547 15.044C28.5943 15.8126 28.5634 16.6025 28.3641 17.3578C28.1649 18.1131 27.8021 18.8154 27.3015 19.4151C26.8009 20.0148 26.1747 20.4972 25.4671 20.8282C24.7595 21.1592 23.9878 21.3307 23.2067 21.3306H20V24.664C20 27.2413 17.832 28.8293 15.7933 29.2226C14.508 29.4693 13.488 28.6333 13.0947 27.7146L9.788 19.9973H8C6.93913 19.9973 5.92172 19.5759 5.17157 18.8257C4.42143 18.0756 4 17.0582 4 15.9973V7.99731C4 6.93645 4.42143 5.91903 5.17157 5.16889C5.92172 4.41874 6.93913 3.99731 8 3.99731H21.9947ZM21.9947 6.66398H12V18.1173C11.9996 18.2978 12.0359 18.4766 12.1067 18.6426L15.5 26.5573C16.6693 26.2586 17.3333 25.4533 17.3333 24.664V21.3306C17.3333 20.6234 17.6143 19.9451 18.1144 19.445C18.6145 18.9449 19.2928 18.664 20 18.664H23.2067C23.5973 18.664 23.9832 18.5783 24.3371 18.4127C24.6909 18.2472 25.0041 18.0059 25.2544 17.706C25.5047 17.4061 25.6861 17.0548 25.7856 16.6771C25.8852 16.2993 25.9006 15.9043 25.8307 15.52L24.6187 8.85331C24.5069 8.23888 24.183 7.68318 23.7035 7.28308C23.2239 6.88299 22.6192 6.66389 21.9947 6.66398ZM9.33333 6.66398H8C7.67342 6.66402 7.35822 6.78392 7.11417 7.00093C6.87012 7.21795 6.71421 7.51698 6.676 7.84131L6.66667 7.99731V15.9973C6.66671 16.3239 6.78661 16.6391 7.00362 16.8831C7.22063 17.1272 7.51967 17.2831 7.844 17.3213L8 17.3306H9.33333V6.66398Z" fill="white"/>
</g>
<defs>
<clipPath id="clip0_2121_4254">
<rect width="32" height="32" fill="white"/>
</clipPath>
</defs>
</svg>
