<svg width="24" height="24" viewBox="0 0 24 24" fill="none" xmlns="http://www.w3.org/2000/svg">
<g clip-path="url(#clip0_2056_3507)">
<path fill-rule="evenodd" clip-rule="evenodd" d="M13.8961 3.02996C14.25 2.67601 14.7238 2.46763 15.2238 2.44597C15.7239 2.42431 16.2139 2.59094 16.5971 2.91296L16.7241 3.02996L20.9671 7.27296C21.3208 7.62682 21.529 8.10038 21.5506 8.6002C21.5723 9.10003 21.4058 9.58983 21.0841 9.97296L20.9671 10.101L10.6531 20.415C10.3211 20.747 9.88282 20.9516 9.41509 20.993L9.23909 21H4.00609C3.75727 21 3.5172 20.9081 3.33192 20.742C3.14664 20.5759 3.02919 20.3473 3.00209 20.1L2.99609 19.99V14.757C2.99621 14.2874 3.16153 13.8329 3.46309 13.473L3.58309 13.343L13.8961 3.02996ZM12.1701 7.58396L4.99609 14.758V19H9.24009L16.4141 11.826L12.1711 7.58296L12.1701 7.58396ZM15.3101 4.44396L13.5841 6.16996L17.8271 10.413L19.5531 8.68696L15.3101 4.44396Z" fill="white"/>
</g>
<defs>
<clipPath id="clip0_2056_3507">
<rect width="24" height="24" fill="white"/>
</clipPath>
</defs>
</svg>
