<svg width="20" height="20" viewBox="0 0 20 20" fill="none" xmlns="http://www.w3.org/2000/svg">
<rect width="20" height="20" rx="2" fill="#A01F1F"/>
<path d="M17.9411 17.9544L16.0704 13.4544C16.0144 13.3195 15.9212 13.2045 15.8024 13.1237C15.6836 13.0429 15.5444 12.9999 15.402 13H14.1633L14.6094 12.5415C15.8579 11.2634 16.5455 9.56201 16.5455 7.74999C16.5455 4.02818 13.6094 1 9.99999 1C6.3906 1 3.45451 4.02818 3.45451 7.74999C3.45451 9.56201 4.14202 11.2634 5.39061 12.5408L5.83734 13H4.59796C4.45564 12.9999 4.31643 13.0429 4.19761 13.1237C4.0788 13.2045 3.98562 13.3195 3.92964 13.4545L2.05889 17.9545C2.01145 18.0685 1.9922 18.1929 2.00286 18.3165C2.01352 18.4401 2.05377 18.5591 2.11998 18.6627C2.18627 18.7663 2.27644 18.8514 2.38242 18.9102C2.4884 18.9691 2.60688 18.9999 2.72725 19H17.2728C17.3932 18.9999 17.5117 18.9691 17.6177 18.9102C17.7236 18.8514 17.8138 18.7663 17.8801 18.6627C17.9463 18.5591 17.9865 18.4401 17.9971 18.3165C18.0078 18.1929 17.9885 18.0685 17.9411 17.9544ZM9.99999 4.75C11.6044 4.75 12.9091 6.09582 12.9091 7.74999C12.9091 9.40416 11.6044 10.75 9.99999 10.75C8.39556 10.75 7.0909 9.40416 7.0909 7.74999C7.0909 6.09582 8.39556 4.75 9.99999 4.75ZM3.83019 17.5L5.07735 14.5H7.29654L9.74359 17.0155C9.7772 17.0503 9.81716 17.0779 9.86117 17.0967C9.90518 17.1155 9.95236 17.1251 9.99999 17.125C10.093 17.125 10.1861 17.0883 10.2564 17.0155L12.7038 14.5H14.9226L16.1698 17.5H3.83019Z" fill="white"/>
</svg>
