<svg width="28" height="28" viewBox="0 0 28 28" fill="none" xmlns="http://www.w3.org/2000/svg">
<g clip-path="url(#clip0_4034_3056)">
<path fill-rule="evenodd" clip-rule="evenodd" d="M10.1513 6.70825C10.8245 5.54159 12.508 5.54159 13.1823 6.70825L17.2656 13.7806L18.318 11.9583C18.9911 10.7916 20.6746 10.7916 21.349 11.9583L26.4006 20.7083C26.5542 20.9743 26.6351 21.2761 26.6351 21.5832C26.6351 21.8904 26.5542 22.1922 26.4006 22.4582C26.2471 22.7243 26.0261 22.9452 25.7601 23.0988C25.4941 23.2524 25.1923 23.3332 24.8851 23.3333H19.8335V23.3309C19.8055 23.3323 19.7775 23.3331 19.7495 23.3333H3.58413C3.27685 23.3334 2.97493 23.2527 2.70874 23.0992C2.44255 22.9457 2.22147 22.7248 2.06774 22.4587C1.91402 22.1927 1.83306 21.8908 1.83301 21.5835C1.83296 21.2762 1.91382 20.9744 2.06746 20.7083L10.1513 6.70825ZM9.08963 13.2136L9.9168 13.7643L11.0193 13.0293C11.211 12.9013 11.4363 12.8331 11.6668 12.8331C11.8973 12.8331 12.1226 12.9013 12.3143 13.0293L13.4168 13.7643L14.244 13.2136L11.6668 8.74992L9.08963 13.2136Z" fill="#D90000"/>
</g>
<defs>
<clipPath id="clip0_4034_3056">
<rect width="28" height="28" fill="white"/>
</clipPath>
</defs>
</svg>
