<svg width="28" height="28" viewBox="0 0 28 28" fill="none" xmlns="http://www.w3.org/2000/svg">
<g clip-path="url(#clip0_2015_415)">
<path d="M23.3334 3.5C23.9522 3.5 24.5457 3.74583 24.9833 4.18342C25.4209 4.621 25.6667 5.21449 25.6667 5.83333V22.1667C25.6667 22.7855 25.4209 23.379 24.9833 23.8166C24.5457 24.2542 23.9522 24.5 23.3334 24.5H4.66671C4.04787 24.5 3.45438 24.2542 3.01679 23.8166C2.57921 23.379 2.33337 22.7855 2.33337 22.1667V5.83333C2.33337 5.21449 2.57921 4.621 3.01679 4.18342C3.45438 3.74583 4.04787 3.5 4.66671 3.5H23.3334ZM23.3334 5.83333H4.66671V22.1667H5.75054L16.6099 11.3073C16.7453 11.1719 16.9061 11.0644 17.083 10.9911C17.26 10.9178 17.4497 10.8801 17.6412 10.8801C17.8328 10.8801 18.0224 10.9178 18.1994 10.9911C18.3763 11.0644 18.5371 11.1719 18.6725 11.3073L23.3334 15.967V5.83333ZM8.75004 8.16667C9.21417 8.16667 9.65929 8.35104 9.98748 8.67923C10.3157 9.00742 10.5 9.45254 10.5 9.91667C10.5 10.3808 10.3157 10.8259 9.98748 11.1541C9.65929 11.4823 9.21417 11.6667 8.75004 11.6667C8.28591 11.6667 7.84079 11.4823 7.5126 11.1541C7.18441 10.8259 7.00004 10.3808 7.00004 9.91667C7.00004 9.45254 7.18441 9.00742 7.5126 8.67923C7.84079 8.35104 8.28591 8.16667 8.75004 8.16667Z" fill="white"/>
</g>
<defs>
<clipPath id="clip0_2015_415">
<rect width="28" height="28" fill="white"/>
</clipPath>
</defs>
</svg>
