<svg width="24" height="24" viewBox="0 0 24 24" fill="none" xmlns="http://www.w3.org/2000/svg">
<g clip-path="url(#clip0_2121_4065)">
<path fill-rule="evenodd" clip-rule="evenodd" d="M14.0701 19.7269C12.3191 20.196 10.4606 20.0567 8.7991 19.3318C7.13756 18.607 5.77133 17.3395 4.92408 15.7369C4.80036 15.5022 4.58846 15.3262 4.33501 15.2478C4.08155 15.1693 3.8073 15.1947 3.57258 15.3184C3.33787 15.4421 3.16191 15.654 3.08343 15.9075C3.00494 16.1609 3.03036 16.4352 3.15408 16.6699C5.28408 20.7099 9.99008 22.8909 14.5881 21.6599C19.9231 20.2299 23.0881 14.7459 21.6591 9.41191C20.2291 4.07691 14.7461 0.911911 9.41208 2.34091C7.29864 2.90713 5.42914 4.15068 4.09003 5.88101C2.75092 7.61134 2.01607 9.733 1.99808 11.9209C1.99108 12.8239 2.99308 13.3229 3.71108 12.8399L6.38408 11.0389C7.39208 10.3589 6.71608 8.78791 5.53008 9.05291L4.47208 9.28891C4.93845 7.99461 5.73071 6.84245 6.77234 5.94373C7.81397 5.045 9.06977 4.43009 10.4184 4.15838C11.7671 3.88667 13.163 3.96735 14.4714 4.39263C15.7798 4.8179 16.9564 5.5734 17.8875 6.58615C18.8187 7.59889 19.4729 8.83466 19.7871 10.1741C20.1012 11.5135 20.0646 12.9113 19.6809 14.2324C19.2971 15.5536 18.5791 16.7534 17.5963 17.7161C16.6134 18.6787 15.3989 19.3716 14.0701 19.7279V19.7269Z" fill="white"/>
</g>
<defs>
<clipPath id="clip0_2121_4065">
<rect width="24" height="24" fill="white"/>
</clipPath>
</defs>
</svg>
