<svg width="20" height="20" viewBox="0 0 20 20" fill="none" xmlns="http://www.w3.org/2000/svg">
<rect width="20" height="20" rx="2" fill="#A01F1F"/>
<path d="M7.54733 13.6055C8.08638 13.336 8.75777 13 9.99312 13C11.2295 13 11.9018 13.3355 12.4414 13.6055C12.8998 13.8345 13.2314 14.0001 13.9965 14.0001C14.7612 14.0001 15.0927 13.8345 15.5512 13.6055C15.7595 13.5018 15.9723 13.4073 16.189 13.3225L15.9999 11.9988L13.9999 9.00003L12.9999 7.00003L12.3181 6.77273L11.4999 8.00002V9.00003L11.9999 10.0001L10.4999 11.0001L10.9999 10.0001L10.4999 8.50006L11.4999 6.50006L9.97824 3L7.99996 5L6.99995 8.49916L5.49996 10.5L4.99885 13L4.70654 13.7317C5.05011 13.8914 5.385 14.0001 5.99604 14.0001C6.75922 14 7.0898 13.8345 7.54733 13.6055Z" fill="white"/>
<path d="M15.5513 14.6055C15.0928 14.8345 14.7613 15 13.9966 15C13.2315 15 12.8999 14.8345 12.4415 14.6055C11.9019 14.3355 11.2295 14 9.99322 14C8.75787 14 8.08648 14.336 7.54743 14.6055C7.0899 14.8345 6.75935 15 5.99615 15C5.23346 15 4.90287 14.8345 4.44586 14.606C3.90626 14.336 3.23535 14 2 14V16C2.76269 16 3.09328 16.1656 3.55029 16.3941C4.08985 16.6641 4.76073 17 5.99608 17C7.23143 17 7.90282 16.6641 8.44188 16.3946C8.8994 16.1656 9.22995 16 9.99316 16C10.7578 16 11.0894 16.1656 11.5478 16.3946C12.0879 16.6641 12.7598 17 13.9966 17C15.2329 17 15.9053 16.6646 16.4448 16.3946C16.9033 16.1656 17.2349 16 18 16V14C16.7632 14 16.0914 14.336 15.5513 14.6055Z" fill="white"/>
</svg>
