<svg width="20" height="20" viewBox="0 0 20 20" fill="none" xmlns="http://www.w3.org/2000/svg">
<rect width="20" height="20" rx="2" fill="#A01F1F"/>
<mask id="mask0_2164_4040" style="mask-type:luminance" maskUnits="userSpaceOnUse" x="2" y="2" width="16" height="16">
<path d="M2 2H18V18H2V2Z" fill="white"/>
</mask>
<g mask="url(#mask0_2164_4040)">
<path fill-rule="evenodd" clip-rule="evenodd" d="M3.3335 4C3.3335 2.89867 4.23216 2 5.3335 2H8.00016C9.1015 2 10.0002 2.89867 10.0002 4V16C10.0002 17.1013 9.1015 18 8.00016 18H5.3335C4.23216 18 3.3335 17.1013 3.3335 16V4ZM5.3335 3.33333C4.96816 3.33333 4.66683 3.63467 4.66683 4V16C4.66683 16.3653 4.96816 16.6667 5.3335 16.6667H8.00016C8.3655 16.6667 8.66683 16.3653 8.66683 16V4C8.66683 3.63467 8.3655 3.33333 8.00016 3.33333H5.3335Z" fill="white"/>
<path fill-rule="evenodd" clip-rule="evenodd" d="M3.3335 8.66652C3.3335 8.48971 3.40373 8.32014 3.52876 8.19512C3.65378 8.0701 3.82335 7.99986 4.00016 7.99986H6.66683C6.84364 7.99986 7.01321 8.0701 7.13823 8.19512C7.26326 8.32014 7.3335 8.48971 7.3335 8.66652C7.3335 8.84333 7.26326 9.0129 7.13823 9.13793C7.01321 9.26295 6.84364 9.33319 6.66683 9.33319H4.00016C3.82335 9.33319 3.65378 9.26295 3.52876 9.13793C3.40373 9.0129 3.3335 8.84333 3.3335 8.66652ZM3.3335 13.9999C3.3335 13.823 3.40373 13.6535 3.52876 13.5285C3.65378 13.4034 3.82335 13.3332 4.00016 13.3332H6.66683C6.84364 13.3332 7.01321 13.4034 7.13823 13.5285C7.26326 13.6535 7.3335 13.823 7.3335 13.9999C7.3335 14.1767 7.26326 14.3462 7.13823 14.4713C7.01321 14.5963 6.84364 14.6665 6.66683 14.6665H4.00016C3.82335 14.6665 3.65378 14.5963 3.52876 14.4713C3.40373 14.3462 3.3335 14.1767 3.3335 13.9999ZM3.3335 5.99986C3.3335 5.82305 3.40373 5.65348 3.52876 5.52845C3.65378 5.40343 3.82335 5.33319 4.00016 5.33319H6.00016C6.17697 5.33319 6.34654 5.40343 6.47157 5.52845C6.59659 5.65348 6.66683 5.82305 6.66683 5.99986C6.66683 6.17667 6.59659 6.34624 6.47157 6.47126C6.34654 6.59629 6.17697 6.66652 6.00016 6.66652H4.00016C3.82335 6.66652 3.65378 6.59629 3.52876 6.47126C3.40373 6.34624 3.3335 6.17667 3.3335 5.99986ZM3.3335 11.3332C3.3335 11.1564 3.40373 10.9868 3.52876 10.8618C3.65378 10.7368 3.82335 10.6665 4.00016 10.6665H6.00016C6.17697 10.6665 6.34654 10.7368 6.47157 10.8618C6.59659 10.9868 6.66683 11.1564 6.66683 11.3332C6.66683 11.51 6.59659 11.6796 6.47157 11.8046C6.34654 11.9296 6.17697 11.9999 6.00016 11.9999H4.00016C3.82335 11.9999 3.65378 11.9296 3.52876 11.8046C3.40373 11.6796 3.3335 11.51 3.3335 11.3332ZM13.5288 2.19519C13.6538 2.07021 13.8234 2 14.0002 2C14.1769 2 14.3465 2.07021 14.4715 2.19519L16.4715 4.19519C16.5929 4.32093 16.6601 4.48933 16.6586 4.66412C16.6571 4.83892 16.587 5.00613 16.4634 5.12974C16.3398 5.25334 16.1726 5.32345 15.9978 5.32497C15.823 5.32649 15.6546 5.2593 15.5288 5.13786L14.0002 3.60919L12.4715 5.13786C12.41 5.20153 12.3364 5.25232 12.2551 5.28726C12.1738 5.3222 12.0863 5.34059 11.9978 5.34136C11.9092 5.34213 11.8215 5.32526 11.7395 5.29174C11.6576 5.25822 11.5832 5.20872 11.5206 5.14612C11.458 5.08353 11.4085 5.00909 11.3749 4.92716C11.3414 4.84523 11.3246 4.75744 11.3253 4.66892C11.3261 4.5804 11.3445 4.49292 11.3794 4.41159C11.4144 4.33025 11.4652 4.25669 11.5288 4.19519L13.5288 2.19519ZM11.5288 14.8619C11.6538 14.7369 11.8234 14.6667 12.0002 14.6667C12.1769 14.6667 12.3465 14.7369 12.4715 14.8619L14.0002 16.3905L15.5288 14.8619C15.6546 14.7404 15.823 14.6732 15.9978 14.6747C16.1726 14.6763 16.3398 14.7464 16.4634 14.87C16.587 14.9936 16.6571 15.1608 16.6586 15.3356C16.6601 15.5104 16.5929 15.6788 16.4715 15.8045L14.4715 17.8045C14.3465 17.9295 14.1769 17.9997 14.0002 17.9997C13.8234 17.9997 13.6538 17.9295 13.5288 17.8045L11.5288 15.8045C11.4038 15.6795 11.3336 15.51 11.3336 15.3332C11.3336 15.1564 11.4038 14.9869 11.5288 14.8619Z" fill="white"/>
<path fill-rule="evenodd" clip-rule="evenodd" d="M14.0002 2C14.177 2 14.3465 2.07024 14.4716 2.19526C14.5966 2.32029 14.6668 2.48986 14.6668 2.66667V17.3333C14.6668 17.5101 14.5966 17.6797 14.4716 17.8047C14.3465 17.9298 14.177 18 14.0002 18C13.8234 18 13.6538 17.9298 13.5288 17.8047C13.4037 17.6797 13.3335 17.5101 13.3335 17.3333V2.66667C13.3335 2.48986 13.4037 2.32029 13.5288 2.19526C13.6538 2.07024 13.8234 2 14.0002 2Z" fill="white"/>
</g>
</svg>
