<svg width="24" height="24" viewBox="0 0 24 24" fill="none" xmlns="http://www.w3.org/2000/svg">
<g clip-path="url(#clip0_2123_4033)">
<path d="M6.56996 5.5628C6.42944 5.67522 6.31601 5.81781 6.23807 5.98C6.16012 6.1422 6.11964 6.31984 6.11964 6.4998C6.11964 6.67975 6.16012 6.8574 6.23807 7.01959C6.31601 7.18179 6.42944 7.32437 6.56996 7.4368L11.05 11.0208C11.836 11.6488 13 11.0908 13 10.0838V8.4998C13.0001 8.24123 12.9001 7.99266 12.7209 7.80624C12.5418 7.61982 12.2974 7.51005 12.039 7.49996C11.7806 7.48987 11.5284 7.58024 11.3352 7.75212C11.1421 7.92399 11.023 8.16401 11.003 8.4218L8.60096 6.4998L11 4.5798V4.9998C11 5.26501 11.1053 5.51937 11.2928 5.7069C11.4804 5.89444 11.7347 5.9998 12 5.9998C13.6835 5.99957 15.3107 6.606 16.5834 7.70795C17.8562 8.8099 18.6892 10.3336 18.93 11.9998H18C17.7347 11.9998 17.4804 12.1052 17.2928 12.2927C17.1053 12.4802 17 12.7346 17 12.9998C17 13.265 17.1053 13.5194 17.2928 13.7069C17.4804 13.8944 17.7347 13.9998 18 13.9998H18.93C18.7137 15.4958 18.0194 16.8816 16.9506 17.9504C15.8818 19.0192 14.4959 19.7136 13 19.9298V17.9998C13 17.7346 12.8946 17.4802 12.7071 17.2927C12.5195 17.1052 12.2652 16.9998 12 16.9998C11.7347 16.9998 11.4804 17.1052 11.2928 17.2927C11.1053 17.4802 11 17.7346 11 17.9998V19.9298C9.504 19.7136 8.11813 19.0192 7.04934 17.9504C5.98055 16.8816 5.28619 15.4958 5.06996 13.9998H5.99996C6.26517 13.9998 6.51953 13.8944 6.70706 13.7069C6.8946 13.5194 6.99996 13.265 6.99996 12.9998C6.99996 12.7346 6.8946 12.4802 6.70706 12.2927C6.51953 12.1052 6.26517 11.9998 5.99996 11.9998H5.06996C5.15196 11.4328 5.29996 10.8888 5.50796 10.3748C5.56206 10.2523 5.59099 10.1201 5.59304 9.98618C5.59509 9.85225 5.57021 9.71927 5.51988 9.59514C5.46955 9.471 5.39479 9.35825 5.30005 9.26356C5.2053 9.16888 5.0925 9.09419 4.96834 9.04394C4.84418 8.99368 4.71118 8.96888 4.57725 8.97101C4.44332 8.97314 4.31119 9.00216 4.18869 9.05634C4.06618 9.11051 3.95582 9.18875 3.86413 9.2864C3.77245 9.38405 3.70131 9.49913 3.65496 9.6248C2.94837 11.372 2.80815 13.297 3.25406 15.1282C3.69997 16.9594 4.70951 18.6045 6.14028 19.8313C7.57106 21.058 9.35087 21.8047 11.2287 21.9659C13.1065 22.1271 14.9875 21.6948 16.6065 20.7298C18.2254 19.7649 19.5006 18.316 20.2521 16.5876C21.0036 14.8592 21.1936 12.9385 20.7951 11.0964C20.3967 9.25424 19.43 7.58368 18.0315 6.3203C16.6329 5.05693 14.873 4.26451 13 4.0548V2.9158C13 1.9098 11.836 1.3508 11.05 1.9788L6.56996 5.5628Z" fill="white"/>
</g>
<defs>
<clipPath id="clip0_2123_4033">
<rect width="24" height="24" fill="white"/>
</clipPath>
</defs>
</svg>
