<svg width="24" height="24" viewBox="0 0 24 24" fill="none" xmlns="http://www.w3.org/2000/svg">
<path d="M19 3H16V2.00002C16 0.896953 15.1026 0 14 0H10C8.89748 0 8.00002 0.896953 8.00002 2.00002V3H5.00002C3.89747 3 3 3.89695 3 5.00002V6.50002C2.99996 6.56569 3.01286 6.63073 3.03797 6.69141C3.06309 6.7521 3.09992 6.80724 3.14636 6.85368C3.19279 6.90012 3.24793 6.93694 3.30862 6.96206C3.3693 6.98717 3.43434 7.00007 3.50002 7.00003H20.5C20.5657 7.00007 20.6307 6.98717 20.6914 6.96206C20.7521 6.93694 20.8073 6.90012 20.8537 6.85368C20.9001 6.80724 20.937 6.7521 20.9621 6.69141C20.9872 6.63073 21.0001 6.56569 21 6.50002V5.00002C21 3.89695 20.1025 3 19 3ZM14 3H10V2.00002H14V3ZM19.5 8.00002H4.5C4.43433 7.99997 4.36929 8.01288 4.3086 8.03799C4.24792 8.0631 4.19278 8.09993 4.14634 8.14637C4.0999 8.19281 4.06307 8.24795 4.03796 8.30863C4.01285 8.36932 3.99994 8.43436 3.99998 8.50003V22C3.99998 23.103 4.89745 24 6 24H18C19.1025 24 20 23.103 20 22V8.49998C20.0001 8.43431 19.9871 8.36928 19.962 8.3086C19.9369 8.24792 19.9001 8.19279 19.8536 8.14635C19.8072 8.09992 19.7521 8.06309 19.6914 8.03798C19.6307 8.01287 19.5657 7.99997 19.5 8.00002Z" fill="#D90000"/>
</svg>
