<svg width="32" height="32" viewBox="0 0 32 32" fill="none" xmlns="http://www.w3.org/2000/svg">
<path fill-rule="evenodd" clip-rule="evenodd" d="M13.0947 4.28259C13.4893 3.36259 14.508 2.52793 15.7933 2.77593C17.7587 3.15326 19.8453 4.64393 19.992 7.06126L20 7.33326V10.6666H23.2067C23.9659 10.6666 24.7163 10.8286 25.4078 11.1419C26.0994 11.4552 26.716 11.9125 27.2166 12.4833C27.7172 13.054 28.0902 13.7251 28.3106 14.4516C28.531 15.1781 28.5937 15.9432 28.4947 16.6959L28.4547 16.9546L27.2413 23.6213C27.0262 24.8053 26.417 25.8818 25.5126 26.6758C24.6082 27.4698 23.4619 27.9345 22.26 27.9946L21.9947 27.9999H8C6.97972 28 5.99798 27.6102 5.25565 26.9102C4.51332 26.2103 4.06652 25.2531 4.00667 24.2346L4 23.9999V15.9999C3.99994 14.9796 4.38977 13.9979 5.08971 13.2556C5.78966 12.5133 6.74681 12.0665 7.76533 12.0066L8 11.9999H9.78667L13.0947 4.28259ZM9.33333 14.6666H8C7.64638 14.6666 7.30724 14.8071 7.05719 15.0571C6.80714 15.3072 6.66667 15.6463 6.66667 15.9999V23.9999C6.66667 24.3535 6.80714 24.6927 7.05719 24.9427C7.30724 25.1928 7.64638 25.3333 8 25.3333H9.33333V14.6666ZM15.5 5.43993L12.108 13.3559C12.0606 13.4662 12.0283 13.5824 12.012 13.7013L12 13.8799V25.3333H21.9947C22.5826 25.3333 23.1541 25.1391 23.6202 24.7807C24.0863 24.4224 24.4209 23.9201 24.572 23.3519L24.6187 23.1439L25.832 16.4773C25.899 16.1093 25.8879 15.7313 25.7993 15.3678C25.7107 15.0044 25.5467 14.6637 25.3178 14.3678C25.089 14.0719 24.8004 13.8275 24.4709 13.6504C24.1414 13.4733 23.7784 13.3675 23.4053 13.3399L23.2067 13.3333H20C19.3272 13.3335 18.6792 13.0794 18.1859 12.6219C17.6926 12.1645 17.3905 11.5375 17.34 10.8666L17.3333 10.6666V7.33326C17.3333 6.59593 16.7547 5.84526 15.7267 5.50659L15.5 5.43993Z" fill="white"/>
</svg>
